<svg xmlns="http://www.w3.org/2000/svg" width="512" height="512" viewBox="0 0 512 512" style="overflow: visible;"><rect data-uid="o-f708daf5d394415899efa7d50a8218c7" data-fl-background="" x="0" y="0" width="512" height="512" fill="#000000"></rect><g transform="matrix(0.569296122678951, 0, 0, 0.569296122678951, 86.63440567470448, -22.158597266806012)" data-uid="o-8bdc27c60ef6429c9569263d63c9a29e" fill="#fec934"><svg version="1.1" id="Calque_1" xmlns="http://www.w3.org/2000/svg" x="0px" y="0px" viewBox="0 0 595.28 841.89" enable-background="new 0 0 595.28 841.89" width="595.28" height="841.89" data-uid="o-b2d1d25f318e449b95810e724314b9a6"><g data-uid="o-dd632cfcb7704e6a827bab63dc6185b3"><g data-uid="o-bfff5a3222db420b8b60b2fd07099b0c"><g data-uid="o-845ab74ea7874287a2150a39625c5040"><g data-uid="o-cf97a923279245bbb5524061fff6e38b"><path class="st0" d="M499.77 371.71c-19.81 0-36.88 11.71-44.69 28.58h-62.56v41.32h62.56c7.81 16.87 24.88 28.57 44.69 28.57
					c27.2 0 49.23-22.04 49.23-49.24C549 393.75 526.96 371.71 499.77 371.71z M454.44 430c-5 0-9.05-4.05-9.05-9.05
					c0-5 4.05-9.05 9.05-9.05c5 0 9.05 4.05 9.05 9.05C463.49 425.94 459.44 430 454.44 430z M522.76 434.35l-22.65 13.41
					l-22.65-13.41v-26.82l22.65-13.41l22.65 13.41V434.35z" fill="#fec934" data-uid="o-e6730820373c4e41b1c48c02fc27f005"></path></g><g data-uid="o-5c4ea730fb2b4517b4c92c83532a0b09"><path class="st0" d="M188.14 400.28h-53.27c-7.81-16.87-24.87-28.58-44.69-28.58c-19.42 0-36.16 11.27-44.18 27.61h36.44
					l17.14 23.32l-17.14 23.32H47.82c8.57 14.48 24.31 24.23 42.36 24.23c19.82 0 36.88-11.71 44.69-28.57h53.27V400.28z
					 M139.41 430c-5 0-9.05-4.05-9.05-9.05c0-5 4.05-9.05 9.05-9.05s9.05 4.05 9.05 9.05C148.46 425.94 144.41 430 139.41 430z" fill="#fec934" data-uid="o-c927165407db4607afd70ea0c0909081"></path></g></g></g><g data-uid="o-375c1b376710457e93e1dcf7b646f0ea"><g data-uid="o-d2260af39d6f4aa9b4ce9c6fa44e12db"><path class="st0" d="M433.79 380.24c-2.43 0-4.69-1.53-5.51-3.94c-19.11-56.2-71.85-93.95-131.25-93.95
				c-58.27 0-110.69 36.82-130.43 91.64c-1.05 2.91-4.21 4.54-7.18 3.61c-2.96-0.9-4.71-3.95-3.96-6.96l0.01-0.03
				c21.58-59.97 78.39-99.89 141.55-99.89c64.38 0 121.55 40.93 142.27 101.84c1.03 3.05-0.59 6.35-3.64 7.39
				C435.04 380.14 434.41 380.24 433.79 380.24z" fill="#fec934" data-uid="o-28a440407029427fb242123525abcfe9"></path></g><g data-uid="o-6b3a072dd60e4183907245a12ca9fea6"><path class="st0" d="M297.04 571.29c-63.16 0-119.98-39.92-141.38-99.32l5.46-2.01l5.65-1.41l0.01 0.03
				c19.58 54.24 71.99 91.07 130.26 91.07c59.39 0 112.14-37.76 131.25-93.95c1.04-3.04 4.32-4.68 7.38-3.64
				c3.04 1.04 4.67 4.34 3.64 7.39C418.59 530.36 361.42 571.29 297.04 571.29z" fill="#fec934" data-uid="o-08a7ac0a96934d3886ce0d77760d2cf0"></path></g></g><g data-uid="o-03f003b5840d4251824dd7b476aaca5c"><g data-uid="o-cf8674ab4e784d8cab53755925329c5d"><path class="st1" d="M499.5 342.16c-2.01 0-3.97-1.04-5.04-2.91l-23.88-41.35l-30.55 17.64c-2.5 1.45-5.68 0.84-7.48-1.43
				c-7.93-10.03-16.97-19.2-26.88-27.24c-2.22-1.81-2.8-4.95-1.37-7.43l17.81-30.86L385.8 227.6l-17.62 30.52
				c-1.45 2.51-4.53 3.56-7.2 2.49c-11.9-4.75-24.31-8.17-36.89-10.15c-2.83-0.45-4.92-2.88-4.92-5.75v-35.59h-41.94v35.27
				c0 2.89-2.13 5.35-4.99 5.76c-12.65 1.81-25.1 5.06-37.02 9.64c-2.68 0.99-5.7-0.05-7.13-2.53l-17.8-30.83l-36.31 20.97
				l17.63 30.55c1.45 2.5 0.84 5.68-1.43 7.47c-10.05 7.94-19.21 16.98-27.23 26.88c-1.8 2.22-4.94 2.81-7.43 1.37l-30.86-17.82
				l-23.88 41.35c-1.61 2.78-5.17 3.76-7.95 2.13c-2.79-1.6-3.74-5.17-2.13-7.95L117.5 285c0.77-1.34 2.04-2.32 3.53-2.71
				c1.49-0.38 3.07-0.19 4.42 0.59l31.66 18.28c6.68-7.8 14.04-15.07 21.96-21.68L161 248.18c-1.61-2.78-0.65-6.35 2.13-7.95
				l46.39-26.79c1.33-0.78 2.93-0.97 4.42-0.59c1.49 0.4 2.76 1.37 3.53 2.71l18.26 31.63c9.71-3.43 19.72-6.03 29.87-7.78v-36.12
				c0-3.21 2.6-5.82 5.82-5.82H325c3.21 0 5.82 2.6 5.82 5.82v36.51c10.11 1.87 20.09 4.61 29.77 8.19l18.05-31.26
				c0.77-1.34 2.04-2.32 3.53-2.71c1.5-0.37 3.08-0.2 4.42 0.59l46.4 26.79c2.78 1.6 3.74 5.17 2.13 7.95l-18.27 31.66
				c7.81 6.69 15.07 14.06 21.67 21.96l31.29-18.06c2.78-1.62 6.34-0.65 7.95 2.13l26.79 46.39c1.61 2.78 0.66 6.34-2.13 7.95
				C501.49 341.91 500.49 342.16 499.5 342.16z" fill="#fec934" data-uid="o-f052d0bc789243869b8a3e48705722ea"></path></g><g data-uid="o-aa32d6b8542449bea7f9f81359d1c553"><path class="st1" d="M325 644.51h-53.58c-3.21 0-5.82-2.6-5.82-5.82v-36.12c-10.15-1.75-20.16-4.35-29.87-7.78l-18.26 31.63
				c-0.77 1.34-2.04 2.32-3.53 2.71c-1.49 0.38-3.08 0.19-4.42-0.59l-46.39-26.79c-2.78-1.6-3.74-5.17-2.13-7.95l18.07-31.29
				c-7.91-6.61-15.27-13.88-21.96-21.68l-31.66 18.28c-1.34 0.78-2.93 0.97-4.42 0.59c-1.49-0.4-2.76-1.37-3.53-2.71l-26.79-46.39
				c-1.61-2.78-0.66-6.35 2.13-7.95c2.78-1.63 6.34-0.65 7.95 2.13l23.88 41.35l30.86-17.82c2.49-1.43 5.63-0.86 7.43 1.37
				c8.02 9.9 17.19 18.94 27.23 26.88c2.26 1.79 2.88 4.97 1.43 7.47l-17.63 30.55l36.31 20.97l17.8-30.83
				c1.43-2.49 4.45-3.54 7.13-2.53c11.92 4.58 24.37 7.82 37.02 9.64c2.87 0.41 4.99 2.87 4.99 5.76v35.27h41.94v-35.59
				c0-2.87 2.08-5.3 4.92-5.75c12.58-1.98 25-5.39 36.89-10.15c2.67-1.06 5.75-0.02 7.2 2.49l17.62 30.52l36.32-20.97l-17.81-30.86
				c-1.43-2.48-0.85-5.62 1.37-7.43c9.91-8.04 18.95-17.2 26.88-27.24c1.8-2.27 4.98-2.88 7.48-1.43l30.55 17.64l23.88-41.35
				c1.6-2.78 5.17-3.75 7.95-2.13c2.79 1.6 3.74 5.17 2.13 7.95l-26.79 46.39c-1.61 2.78-5.17 3.75-7.95 2.13l-31.29-18.06
				c-6.6 7.91-13.86 15.27-21.67 21.96l18.27 31.66c1.61 2.78 0.65 6.35-2.13 7.95l-46.4 26.79c-1.33 0.77-2.92 0.97-4.42 0.59
				c-1.49-0.4-2.76-1.37-3.53-2.71L360.59 594c-9.69 3.57-19.66 6.31-29.77 8.19v36.51C330.82 641.91 328.21 644.51 325 644.51z" fill="#fec934" data-uid="o-f8be57b65d1a488a88a748a27427b44a"></path></g></g><g data-uid="o-6e7680343d254290b57fc46728087ee7"><g data-uid="o-87a1e1dac5a444529dfe074a45e8834f"><g data-uid="o-51c302c68adf4e11b9b44ff4d1f85151"><path class="st1" d="M343.82 455.55c0 10.1 8.22 18.32 18.32 18.32c10.1 0 18.32-8.22 18.32-18.32v-88.61
					c0-0.4 0.01-0.91 0.03-1.48c0.09-3.52 0.28-10.85-3.23-14.45c-1.63-1.68-4.09-2.49-7.51-2.49c-5.58 0-9.85 1.55-13.98 3.05
					c-6.7 2.43-15.04 5.47-23.83-3.58c-8.17-8.42-18.36-7.22-24.37-2.55c-10.02 7.79-18.6 8.87-35.33 4.43
					c-9.71-2.58-14.12 1.23-20.78 7c-1.42 1.23-2.86 2.47-4.38 3.67c-8.19 6.5-14.11 3.59-18.87 1.26
					c-2.92-1.43-5.93-2.91-10.7-3.43c-4.68-0.5-9.25 0.98-12.84 4.2c-3.49 3.13-5.66 7.6-5.66 11.66v74.06
					c0 10.1 8.22 18.32 18.32 18.32c10.1 0 18.32-8.22 18.32-18.32v-46.29c0-3.21 2.61-5.82 5.82-5.82c3.21 0 5.82 2.61 5.82 5.82
					v46.29v4.59v2.68c0 10.1 8.22 18.32 18.32 18.32c10.1 0 18.32-8.22 18.32-18.32c0-0.12 0.03-0.22 0.03-0.34v-53.22
					c0-3.21 2.61-5.82 5.82-5.82c3.21 0 5.82 2.61 5.82 5.82v54.23c0.36 9.79 8.41 17.64 18.28 17.64c9.72 0 17.67-7.62 18.26-17.19
					v-54.68c0-3.21 2.61-5.82 5.82-5.82c3.21 0 5.82 2.61 5.82 5.82v53C343.78 455.18 343.82 455.36 343.82 455.55z" fill="#fec934" data-uid="o-1e3ab4cd3d5643408ea3b50d1bd03e7f"></path></g><g data-uid="o-f502467f57e34664966bd8749d68e721"><path class="st1" d="M391.77 459.7c-2.03 14.56-14.53 25.81-29.64 25.81c-9.89 0-18.68-4.82-24.14-12.23
					c-5.46 7.41-14.24 12.23-24.14 12.23c-6.36 0-12.26-2.01-17.11-5.41v4.24c0 11.91 9.66 21.57 21.57 21.57h62.08
					c11.97 0 21.68-9.71 21.68-21.68V459.7H391.77z" fill="#fec934" data-uid="o-1e066ae15ba6444798cc60d38c572e14"></path></g></g><g data-uid="o-1af9c655b95b45f1b279dde74e0847d9"><g data-uid="o-1bd6085c972640de858ae6d72167423f"><path class="st1" fill="#fec934" data-type="circle" data-cx="297.45" data-cy="233.88" data-r="6.28" d="M297.45 233.88m-6.28 0a6.28 6.28 0 1 0 12.56 0a6.28 6.28 0 1 0 -12.56 0" data-uid="o-659adf81072e4b8e9e0cb99931083efa"></path></g><g data-uid="o-c58dd126719d4881aa61c02dc567c67a"><path class="st1" fill="#fec934" data-type="circle" data-cx="389.58" data-cy="263.54" data-r="6.28" d="M389.58 263.54m-6.28 0a6.28 6.28 0 1 0 12.56 0a6.28 6.28 0 1 0 -12.56 0" data-uid="o-4e145ed942a64996befa2a2d40a9506c"></path></g><g data-uid="o-6c0b760eeec441d4917522742e17b755"><path class="st1" fill="#fec934" data-type="circle" data-cx="207.76" data-cy="263.54" data-r="6.28" d="M207.76 263.54m-6.28 0a6.28 6.28 0 1 0 12.56 0a6.28 6.28 0 1 0 -12.56 0" data-uid="o-39b7de12af384967a53adbd9330bac31"></path></g><g data-uid="o-262d11525b0d4878b48859e84d8f79ae"><path class="st1" fill="#fec934" data-type="circle" data-cx="136.1" data-cy="337.58" data-r="6.28" d="M136.1 337.58m-6.28 0a6.28 6.28 0 1 0 12.56 0a6.28 6.28 0 1 0 -12.56 0" data-uid="o-ae623d7284524a5ba435ffbd99e6118d"></path></g><g data-uid="o-b0ec7dacc51b4e1b84455d53490ba7a5"><path class="st1" fill="#fec934" data-type="circle" data-cx="455.01" data-cy="337.58" data-r="6.28" d="M455.01 337.58m-6.28 0a6.28 6.28 0 1 0 12.56 0a6.28 6.28 0 1 0 -12.56 0" data-uid="o-8a385c7a4ce94c458668affec0ab429e"></path></g></g><g data-uid="o-946464cfb02048b5a3c1fb7aa3460633"><g data-uid="o-7470d527956041e5acaf9d746fb17800"><path class="st1" fill="#fec934" data-type="circle" data-cx="297.45" data-cy="608.12" data-r="6.28" d="M297.45 608.12m-6.28 0a6.28 6.28 0 1 0 12.56 0a6.28 6.28 0 1 0 -12.56 0" data-uid="o-430c69c4809b45eca1b1c0114f6828a3"></path></g><g data-uid="o-49c9df3b818c4ded8f4b2915a1b9e827"><path class="st1" fill="#fec934" data-type="circle" data-cx="389.58" data-cy="578.46" data-r="6.28" d="M389.58 578.46m-6.28 0a6.28 6.28 0 1 0 12.56 0a6.28 6.28 0 1 0 -12.56 0" data-uid="o-89272c12c2654b41a76342fa44c38e26"></path></g><g data-uid="o-e41102bfafc349a8a32809435d17a176"><path class="st1" fill="#fec934" data-type="circle" data-cx="207.76" data-cy="578.46" data-r="6.28" d="M207.76 578.46m-6.28 0a6.28 6.28 0 1 0 12.56 0a6.28 6.28 0 1 0 -12.56 0" data-uid="o-6fc5a6a90b64401a8523931175b1165f"></path></g><g data-uid="o-1c0b4f1a5d0147298b63ce2cf9bc34ed"><path class="st1" fill="#fec934" data-type="circle" data-cx="136.1" data-cy="504.42" data-r="6.28" d="M136.1 504.42m-6.28 0a6.28 6.28 0 1 0 12.56 0a6.28 6.28 0 1 0 -12.56 0" data-uid="o-9305f8dba3d34a1fb33d09de74b9d6b4"></path></g><g data-uid="o-e9a1d9e96347466bb2c2e15e315b56c2"><path class="st1" fill="#fec934" data-type="circle" data-cx="455.01" data-cy="504.42" data-r="6.28" d="M455.01 504.42m-6.28 0a6.28 6.28 0 1 0 12.56 0a6.28 6.28 0 1 0 -12.56 0" data-uid="o-b44341e3623d42b39087330b3137eb63"></path></g></g></g></g></svg></g><path text="JavaScript Collections" fill="#fec934" space="preserve" text-anchor="middle" offset="0.5" font-scale="contain" font-size="58" font-family="Teko" transform="matrix(0.8739501313861482, 0, 0, 0.8739501313861482, 256.39852904779775, 425.76122470348884)" font-style="normal" font-weight="normal" letter-spacing="4" data-fl-textpath="" data-uid="o-0c38361f60ba452e801fc24c479b7ce8" d="M-229.601-5.104L-229.601-11.948L-224.323-11.948L-224.323-5.916Q-224.323-4.872 -223.975-4.553Q-223.627-4.234 -222.583-4.234L-222.583-4.234L-220.901-4.234Q-219.857-4.234 -219.509-4.553Q-219.161-4.872 -219.161-5.916L-219.161-5.916L-219.161-36.308L-213.883-36.308L-213.883-5.104Q-213.883 0 -219.277 0L-219.277 0L-224.207 0Q-229.601 0 -229.601-5.104L-229.601-5.104ZM-193.933-26.042L-193.933-28.304L-188.713-28.304L-188.713 0L-193.933 0L-193.933-2.262Q-194.687 0 -197.529 0L-197.529 0L-199.617 0Q-204.837 0 -204.837-5.104L-204.837-5.104L-204.837-23.142Q-204.837-28.304 -199.617-28.304L-199.617-28.304L-197.529-28.304Q-194.687-28.304 -193.933-26.042L-193.933-26.042ZM-197.877-4.234L-197.877-4.234L-195.847-4.234Q-194.803-4.234 -194.368-4.698Q-193.933-5.162 -193.933-6.264L-193.933-6.264L-193.933-22.04Q-193.933-23.142 -194.368-23.606Q-194.803-24.07 -195.847-24.07L-195.847-24.07L-197.877-24.07Q-198.921-24.07 -199.269-23.751Q-199.617-23.432 -199.617-22.388L-199.617-22.388L-199.617-5.916Q-199.617-4.872 -199.269-4.553Q-198.921-4.234 -197.877-4.234ZM-181.929-28.304L-176.709-28.304L-172.997-4.408L-169.227-28.304L-164.007-28.304L-169.227 0L-176.709 0L-181.929-28.304ZM-146.667-26.042L-146.667-28.304L-141.447-28.304L-141.447 0L-146.667 0L-146.667-2.262Q-147.421 0 -150.263 0L-150.263 0L-152.351 0Q-157.571 0 -157.571-5.104L-157.571-5.104L-157.571-23.142Q-157.571-28.304 -152.351-28.304L-152.351-28.304L-150.263-28.304Q-147.421-28.304 -146.667-26.042L-146.667-26.042ZM-150.611-4.234L-150.611-4.234L-148.581-4.234Q-147.537-4.234 -147.102-4.698Q-146.667-5.162 -146.667-6.264L-146.667-6.264L-146.667-22.04Q-146.667-23.142 -147.102-23.606Q-147.537-24.07 -148.581-24.07L-148.581-24.07L-150.611-24.07Q-151.655-24.07 -152.003-23.751Q-152.351-23.432 -152.351-22.388L-152.351-22.388L-152.351-5.916Q-152.351-4.872 -152.003-4.553Q-151.655-4.234 -150.611-4.234ZM-121.439-5.916L-121.439-5.916L-121.439-14.79Q-121.439-15.834 -121.758-16.153Q-122.077-16.472 -123.121-16.472L-123.121-16.472L-127.413-16.472Q-132.691-16.472 -132.691-21.634L-132.691-21.634L-132.691-31.204Q-132.691-36.308 -127.297-36.308L-127.297-36.308L-121.613-36.308Q-116.219-36.308 -116.219-31.204L-116.219-31.204L-116.219-25.868L-121.497-25.868L-121.497-30.392Q-121.497-31.436 -121.845-31.755Q-122.193-32.074 -123.237-32.074L-123.237-32.074L-125.673-32.074Q-126.717-32.074 -127.065-31.755Q-127.413-31.436 -127.413-30.392L-127.413-30.392L-127.413-22.33Q-127.413-21.286 -127.065-20.967Q-126.717-20.648 -125.673-20.648L-125.673-20.648L-121.439-20.648Q-116.103-20.648 -116.103-15.544L-116.103-15.544L-116.103-5.104Q-116.103 0 -121.555 0L-121.555 0L-127.181 0Q-132.575 0 -132.575-5.104L-132.575-5.104L-132.575-10.44L-127.297-10.44L-127.297-5.916Q-127.297-4.872 -126.949-4.553Q-126.601-4.234 -125.557-4.234L-125.557-4.234L-123.121-4.234Q-122.077-4.234 -121.758-4.553Q-121.439-4.872 -121.439-5.916ZM-91.397-23.142L-91.397-19.372L-96.559-19.372L-96.559-22.388Q-96.559-23.432 -96.907-23.751Q-97.255-24.07 -98.299-24.07L-98.299-24.07L-100.793-24.07Q-101.837-24.07 -102.185-23.751Q-102.533-23.432 -102.533-22.388L-102.533-22.388L-102.533-5.916Q-102.533-4.872 -102.185-4.553Q-101.837-4.234 -100.793-4.234L-100.793-4.234L-98.299-4.234Q-97.255-4.234 -96.907-4.553Q-96.559-4.872 -96.559-5.916L-96.559-5.916L-96.559-8.932L-91.397-8.932L-91.397-5.104Q-91.397 0 -96.849 0L-96.849 0L-102.359 0Q-107.753 0 -107.753-5.104L-107.753-5.104L-107.753-23.142Q-107.753-28.304 -102.359-28.304L-102.359-28.304L-96.849-28.304Q-91.397-28.304 -91.397-23.142L-91.397-23.142ZM-73.245-28.362L-73.245-28.362L-72.085-28.362L-72.085-23.838L-74.173-23.838Q-77.827-23.838 -77.827-19.546L-77.827-19.546L-77.827 0L-83.047 0L-83.047-28.304L-77.827-28.304L-77.827-24.824Q-77.363-26.332 -76.174-27.347Q-74.985-28.362 -73.245-28.362ZM-59.907-33.698L-65.359-33.698L-65.359-38.86L-59.907-38.86L-59.907-33.698ZM-60.023-28.304L-60.023 0L-65.243 0L-65.243-28.304L-60.023-28.304ZM-42.103-28.304L-42.103-28.304L-40.073-28.304Q-34.795-28.304 -34.795-23.142L-34.795-23.142L-34.795-5.104Q-34.795 0 -40.073 0L-40.073 0L-42.103 0Q-44.945 0 -45.699-2.262L-45.699-2.262L-45.699 8.004L-50.919 8.004L-50.919-28.304L-45.699-28.304L-45.699-26.042Q-44.945-28.304 -42.103-28.304ZM-40.015-5.916L-40.015-5.916L-40.015-22.388Q-40.015-23.432 -40.363-23.751Q-40.711-24.07 -41.755-24.07L-41.755-24.07L-43.785-24.07Q-44.829-24.07 -45.264-23.606Q-45.699-23.142 -45.699-22.04L-45.699-22.04L-45.699-6.264Q-45.699-5.162 -45.264-4.698Q-44.829-4.234 -43.785-4.234L-43.785-4.234L-41.755-4.234Q-40.711-4.234 -40.363-4.553Q-40.015-4.872 -40.015-5.916ZM-16.469-28.304L-16.469-24.07L-20.355-24.07L-20.355-6.148Q-20.355-5.104 -20.036-4.785Q-19.717-4.466 -18.673-4.466L-18.673-4.466L-16.469-4.466L-16.469 0L-20.181 0Q-25.633 0 -25.633-5.104L-25.633-5.104L-25.633-24.07L-28.301-24.07L-28.301-28.304L-25.633-28.304L-25.633-33.118L-20.355-33.118L-20.355-28.304L-16.469-28.304ZM 20.241-31.204L 20.241-24.94L 14.905-24.94L 14.905-30.508Q 14.905-31.552  14.586-31.871Q 14.267-32.19  13.223-32.19L 13.223-32.19L 10.265-32.19Q 9.221-32.19  8.873-31.871Q 8.525-31.552  8.525-30.508L 8.525-30.508L 8.525-5.742Q 8.525-4.698  8.873-4.379Q 9.221-4.06  10.265-4.06L 10.265-4.06L 13.223-4.06Q 14.267-4.06  14.586-4.379Q 14.905-4.698  14.905-5.742L 14.905-5.742L 14.905-11.252L 20.241-11.252L 20.241-5.104Q 20.241 0.058  14.789 0.058L 14.789 0.058L 8.641 0.058Q 3.247 0.058  3.247-5.104L 3.247-5.104L 3.247-31.204Q 3.247-36.308  8.641-36.308L 8.641-36.308L 14.789-36.308Q 20.241-36.308  20.241-31.204L 20.241-31.204ZM 33.985-28.304L 33.985-28.304L 40.191-28.304Q 45.585-28.304  45.585-23.142L 45.585-23.142L 45.585-5.104Q 45.585 0  40.191 0L 40.191 0L 33.985 0Q 28.649 0  28.649-5.104L 28.649-5.104L 28.649-23.142Q 28.649-28.304  33.985-28.304ZM 40.423-5.858L 40.423-5.858L 40.423-22.446Q 40.423-23.49  40.075-23.838Q 39.727-24.186  38.683-24.186L 38.683-24.186L 35.493-24.186Q 34.449-24.186  34.13-23.838Q 33.811-23.49  33.811-22.446L 33.811-22.446L 33.811-5.858Q 33.811-4.814  34.13-4.466Q 34.449-4.118  35.493-4.118L 35.493-4.118L 38.683-4.118Q 39.727-4.118  40.075-4.466Q 40.423-4.814  40.423-5.858ZM 59.619-38.802L 59.619 0L 54.399 0L 54.399-38.802L 59.619-38.802ZM 73.943-38.802L 73.943 0L 68.723 0L 68.723-38.802L 73.943-38.802ZM 88.325-28.304L 88.325-28.304L 94.009-28.304Q 99.461-28.304  99.461-23.142L 99.461-23.142L 99.461-12.528L 88.035-12.528L 88.035-5.8Q 88.035-4.814  88.383-4.466Q 88.731-4.118  89.775-4.118L 89.775-4.118L 92.443-4.118Q 93.487-4.118  93.835-4.466Q 94.183-4.814  94.183-5.858L 94.183-5.858L 94.183-8.178L 99.287-8.178L 99.287-5.104Q 99.287 0  93.893 0L 93.893 0L 88.325 0Q 82.931 0  82.931-5.104L 82.931-5.104L 82.931-23.142Q 82.931-28.304  88.325-28.304ZM 88.035-22.504L 88.035-16.356L 94.299-16.356L 94.299-22.504Q 94.299-23.49  93.98-23.838Q 93.661-24.186  92.617-24.186L 92.617-24.186L 89.775-24.186Q 88.731-24.186  88.383-23.838Q 88.035-23.49  88.035-22.504L 88.035-22.504ZM 123.935-23.142L 123.935-19.372L 118.773-19.372L 118.773-22.388Q 118.773-23.432  118.425-23.751Q 118.077-24.07  117.033-24.07L 117.033-24.07L 114.539-24.07Q 113.495-24.07  113.147-23.751Q 112.799-23.432  112.799-22.388L 112.799-22.388L 112.799-5.916Q 112.799-4.872  113.147-4.553Q 113.495-4.234  114.539-4.234L 114.539-4.234L 117.033-4.234Q 118.077-4.234  118.425-4.553Q 118.773-4.872  118.773-5.916L 118.773-5.916L 118.773-8.932L 123.935-8.932L 123.935-5.104Q 123.935 0  118.483 0L 118.483 0L 112.973 0Q 107.579 0  107.579-5.104L 107.579-5.104L 107.579-23.142Q 107.579-28.304  112.973-28.304L 112.973-28.304L 118.483-28.304Q 123.935-28.304  123.935-23.142L 123.935-23.142ZM 141.855-28.304L 141.855-24.07L 137.969-24.07L 137.969-6.148Q 137.969-5.104  138.288-4.785Q 138.607-4.466  139.651-4.466L 139.651-4.466L 141.855-4.466L 141.855 0L 138.143 0Q 132.691 0  132.691-5.104L 132.691-5.104L 132.691-24.07L 130.023-24.07L 130.023-28.304L 132.691-28.304L 132.691-33.118L 137.969-33.118L 137.969-28.304L 141.855-28.304ZM 154.323-33.698L 148.871-33.698L 148.871-38.86L 154.323-38.86L 154.323-33.698ZM 154.207-28.304L 154.207 0L 148.987 0L 148.987-28.304L 154.207-28.304ZM 168.357-28.304L 168.357-28.304L 174.563-28.304Q 179.957-28.304  179.957-23.142L 179.957-23.142L 179.957-5.104Q 179.957 0  174.563 0L 174.563 0L 168.357 0Q 163.021 0  163.021-5.104L 163.021-5.104L 163.021-23.142Q 163.021-28.304  168.357-28.304ZM 174.795-5.858L 174.795-5.858L 174.795-22.446Q 174.795-23.49  174.447-23.838Q 174.099-24.186  173.055-24.186L 173.055-24.186L 169.865-24.186Q 168.821-24.186  168.502-23.838Q 168.183-23.49  168.183-22.446L 168.183-22.446L 168.183-5.858Q 168.183-4.814  168.502-4.466Q 168.821-4.118  169.865-4.118L 169.865-4.118L 173.055-4.118Q 174.099-4.118  174.447-4.466Q 174.795-4.814  174.795-5.858ZM 197.587-28.304L 197.587-28.304L 199.617-28.304Q 204.895-28.304  204.895-23.142L 204.895-23.142L 204.895 0L 199.675 0L 199.675-22.388Q 199.675-23.432  199.327-23.751Q 198.979-24.07  197.935-24.07L 197.935-24.07L 195.905-24.07Q 194.861-24.07  194.426-23.606Q 193.991-23.142  193.991-22.04L 193.991-22.04L 193.991 0L 188.771 0L 188.771-28.304L 193.991-28.304L 193.991-26.042Q 194.745-28.304  197.587-28.304ZM 223.395-5.684L 223.395-5.684L 223.395-10.382Q 223.395-11.426  223.047-11.745Q 222.699-12.064  221.655-12.064L 221.655-12.064L 218.697-12.064Q 213.303-12.064  213.303-17.168L 213.303-17.168L 213.303-23.142Q 213.303-28.304  218.697-28.304L 218.697-28.304L 222.931-28.304Q 228.383-28.304  228.383-23.142L 228.383-23.142L 228.383-20.416L 223.279-20.416L 223.279-22.62Q 223.279-23.664  222.931-23.983Q 222.583-24.302  221.539-24.302L 221.539-24.302L 220.147-24.302Q 219.103-24.302  218.755-23.983Q 218.407-23.664  218.407-22.62L 218.407-22.62L 218.407-17.748Q 218.407-16.704  218.755-16.385Q 219.103-16.066  220.147-16.066L 220.147-16.066L 223.163-16.066Q 228.499-16.066  228.499-10.904L 228.499-10.904L 228.499-5.104Q 228.499 0  223.105 0L 223.105 0L 218.813 0Q 213.419 0  213.419-5.104L 213.419-5.104L 213.419-7.888L 218.523-7.888L 218.523-5.684Q 218.523-4.64  218.871-4.321Q 219.219-4.002  220.263-4.002L 220.263-4.002L 221.655-4.002Q 222.699-4.002  223.047-4.321Q 223.395-4.64  223.395-5.684Z" style=""></path></svg>